<svg width="876" height="229" viewBox="0 0 876 229" fill="none" xmlns="http://www.w3.org/2000/svg">
<rect x="11" y="11" width="854" height="207" rx="30" fill="black"/>
<rect x="5.5" y="5.5" width="865" height="218" rx="35.5" stroke="white" stroke-opacity="0.3" stroke-width="11"/>
<path d="M356.73 100.6H388.25V52.68L370.25 91.24L352.25 52.6V103L349.85 102.92V46.92H352.25L370.25 85.56L388.25 47L390.65 46.92V103L356.73 102.92V100.6ZM424.89 47V103H422.49V47H424.89ZM457.77 47L430.89 73.72L460.33 103H456.89L427.45 73.72L454.33 47H457.77ZM491.23 100.6H522.75V52.68L504.75 91.24L486.75 52.6V103L484.35 102.92V46.92H486.75L504.75 85.56L522.75 47L525.15 46.92V103L491.23 102.92V100.6Z" fill="#FBFF23"/>
<path d="M107.348 131.08V127H116.588L129.308 153.22L141.908 127H151.148V131.08H147.368V167.92H151.148V172H138.548V167.92H142.448V137.02L131.108 160.36H127.328L116.048 136.84V167.92H119.948V172H107.348V167.92H111.128V131.08H107.348ZM202.169 167.92V172H195.329L180.269 149.62V167.92H184.169V172H171.569V167.92H175.349V131.08H171.569V127H184.169V131.08H180.029V147.82L195.329 127H201.809V131.08H197.789L185.309 148.6L198.329 167.92H202.169ZM265.257 127V131.08H262.377L255.957 172H248.157L241.677 131.14L235.197 172H227.397L220.977 131.08H218.097V127H227.997V131.08H225.597L231.297 167.92L237.597 127H245.757L252.057 167.92L257.757 131.08H255.357V127H265.257ZM304.493 142.42V155.02H300.413V150.76H291.953V167.92H307.313V160.9H311.393V172H283.253V167.92H287.033V131.08H283.253V127H311.393V138.1H307.313V131.08H291.953V146.68H300.413V142.42H304.493ZM349.312 143.44C350.152 142.8 351.172 142.48 352.372 142.48C353.612 142.48 354.652 142.9 355.492 143.74C356.372 144.58 356.812 145.88 356.812 147.64V166.72C356.812 168.4 356.552 169.56 356.032 170.2C354.992 171.4 353.472 172 351.472 172H330.592V167.92H334.372V131.02H330.652V127H343.192C347.272 127 349.312 128.78 349.312 132.34V143.44ZM344.452 146.5V131.02H339.292V149.74L344.452 146.5ZM352.012 146.56L339.292 154.54V167.86H352.012V146.56ZM397.771 127C400.731 127 402.771 127.66 403.891 128.98C405.051 130.26 405.631 132.22 405.631 134.86V164.14C405.631 166.9 404.991 168.9 403.711 170.14C402.431 171.38 400.451 172 397.771 172H376.591V167.92H380.371V131.08H376.591V127H397.771ZM400.711 131.08H385.291V167.92H400.711V131.08ZM446.942 142.42V155.02H442.862V150.76H434.402V167.92H449.762V160.9H453.842V172H425.702V167.92H429.482V131.08H425.702V127H453.842V138.1H449.762V131.08H434.402V146.68H442.862V142.42H446.942ZM470.941 127H481.921V131.08H478.801L488.701 167.92L498.541 131.08H494.761V127H506.341V131.08H503.101L492.121 172H485.221L474.301 131.08H470.941V127ZM545.56 142.42V155.02H541.48V150.76H533.02V167.92H548.38V160.9H552.46V172H524.32V167.92H528.1V131.08H524.32V127H552.46V138.1H548.38V131.08H533.02V146.68H541.48V142.42H545.56ZM571.959 167.92H575.739V131.08H571.959V127H584.559V131.08H580.659V167.92H593.259V160.9H597.339V172H571.959V167.92ZM631.74 127C634.18 127 635.94 127.68 637.02 129.04C638.14 130.36 638.7 132.34 638.7 134.98V163.84C638.7 166.72 638.22 168.8 637.26 170.08C636.3 171.36 634.56 172 632.04 172H620.52C616.68 172 614.42 170.56 613.74 167.68C613.5 166.8 613.38 165.82 613.38 164.74V134.98C613.38 132.3 613.82 130.36 614.7 129.16C615.7 127.72 617.48 127 620.04 127H631.74ZM618.18 167.92H633.9V131.08H618.18V167.92ZM680.219 127C682.859 127 684.639 127.5 685.559 128.5C686.479 129.5 686.939 131.48 686.939 134.44V138.82C686.939 141.1 686.459 142.76 685.499 143.8C685.019 144.32 684.379 144.82 683.579 145.3C682.819 145.78 681.879 146.36 680.759 147.04L667.499 155.32V167.92H671.399V172H658.799V167.92H662.579V131.14H658.799V127H680.219ZM682.559 131.14H667.499V150.52L682.559 141.22V131.14ZM728.264 142.42V155.02H724.184V150.76H715.724V167.92H731.084V160.9H735.164V172H707.024V167.92H710.804V131.08H707.024V127H735.164V138.1H731.084V131.08H715.724V146.68H724.184V142.42H728.264ZM788.623 167.92V172H776.743V167.92H779.983L769.723 151.42L763.363 155.32V167.92H767.263V172H754.663V167.92H758.443V131.08H754.663V127H776.083C778.723 127 780.503 127.52 781.423 128.56C782.343 129.56 782.803 131.54 782.803 134.5V138.22C782.803 139.74 782.663 140.94 782.383 141.82C782.103 142.7 781.603 143.5 780.883 144.22C780.163 144.9 779.203 145.6 778.003 146.32C776.803 147.04 775.283 147.96 773.443 149.08L785.263 167.92H788.623ZM763.363 150.52L778.423 141.22V131.08H763.363V150.52Z" fill="white"/>
</svg>
